
<svg version="1.0" xmlns="http://www.w3.org/2000/svg"
 width="1080.000000pt" height="589.000000pt" viewBox="0 0 1080.000000 589.000000"
 preserveAspectRatio="xMidYMid meet">

<g transform="translate(0.000000,589.000000) scale(0.100000,-0.100000)"
fill="#000000" stroke="none">
<path d="M2275 5875 c-135 -26 -235 -70 -512 -231 -445 -258 -1209 -589 -1578
-684 -169 -44 -185 -49 -185 -61 0 -18 86 -24 345 -24 l270 0 275 129 c269
125 1000 459 1076 491 105 44 -36 -30 -665 -346 -516 -260 -695 -355 -732
-387 -103 -92 -62 -107 286 -107 l250 0 195 87 c234 104 394 177 555 253 66
31 116 52 110 47 -27 -27 -435 -240 -775 -406 -102 -49 -172 -110 -168 -145 5
-43 46 -55 178 -54 120 0 230 14 340 40 63 16 192 89 459 260 46 30 85 52 87
50 4 -3 -289 -219 -389 -286 -51 -34 -104 -99 -113 -138 -31 -121 144 -119
421 5 92 41 118 59 235 161 96 85 85 67 -41 -64 -85 -89 -138 -173 -153 -242
-6 -27 -3 -37 18 -58 32 -32 87 -33 182 -4 145 44 205 91 316 249 33 46 -29
-88 -66 -143 -68 -102 -35 -179 75 -179 86 0 187 66 249 162 18 28 34 49 36
47 2 -2 -10 -34 -26 -71 -51 -112 -21 -164 78 -137 60 16 104 43 170 105 98
92 94 76 92 399 -1 155 -4 311 -5 347 l-4 65 -71 7 c-109 10 -137 17 -168 43
-51 43 -80 127 -97 281 -25 226 -61 313 -163 391 -61 46 -128 63 -252 64 -188
0 -246 -18 -600 -191 -146 -72 -270 -130 -275 -130 -13 0 531 273 595 298 130
51 315 68 428 38 107 -29 194 -102 237 -201 27 -61 55 -185 55 -247 1 -118 58
-266 114 -295 16 -8 67 -18 113 -21 l83 -5 0 31 c0 29 -2 31 -47 37 -117 15
-123 17 -147 46 -39 46 -65 130 -76 247 -22 236 -82 360 -213 436 -88 52 -254
69 -402 41z"/>
<path d="M4093 5880 c-90 -14 -154 -42 -210 -94 -94 -86 -136 -190 -153 -378
-17 -200 -60 -280 -159 -298 -29 -6 -69 -10 -87 -10 -32 0 -34 -2 -34 -36 l0
-36 63 6 c131 14 156 24 188 75 39 61 56 124 69 256 19 188 61 292 153 370
122 105 375 113 592 19 97 -42 554 -273 540 -274 -5 0 -129 58 -275 130 -325
159 -376 175 -560 175 -157 0 -212 -14 -279 -72 -87 -74 -124 -168 -146 -366
-16 -147 -25 -184 -58 -241 -41 -72 -95 -95 -223 -96 l-62 0 -6 -152 c-3 -84
-7 -239 -9 -344 l-2 -190 29 -44 c45 -68 119 -135 187 -169 65 -32 126 -40
147 -19 19 19 14 81 -13 142 -34 78 -31 81 13 14 65 -98 162 -161 248 -162 65
0 101 22 110 69 7 37 5 39 -71 178 -20 38 -35 70 -33 73 2 2 25 -24 50 -59 62
-83 92 -110 163 -145 80 -40 158 -62 217 -62 71 0 88 12 88 63 0 69 -40 136
-150 253 -120 129 -150 174 -59 89 143 -134 206 -171 384 -231 170 -56 277
-56 291 2 13 52 -37 131 -120 187 -98 66 -386 278 -386 284 0 3 12 -3 26 -12
59 -38 245 -155 349 -218 88 -53 127 -70 195 -86 181 -42 404 -52 473 -20 41
19 36 54 -15 101 -29 27 -117 76 -268 149 -232 114 -653 339 -646 346 2 2 42
-15 87 -38 112 -56 297 -141 559 -256 203 -90 220 -95 310 -104 94 -8 303 -5
390 7 121 16 137 39 68 99 -51 44 -79 59 -835 440 -326 164 -591 300 -589 302
4 4 377 -164 969 -436 l418 -193 282 4 c285 3 348 11 300 36 -10 6 -66 23
-124 37 -258 65 -543 172 -954 360 -244 111 -575 280 -755 385 -170 99 -264
142 -374 170 -86 22 -231 32 -303 20z m1007 -410 c8 -5 11 -10 5 -10 -5 0 -17
5 -25 10 -8 5 -10 10 -5 10 6 0 17 -5 25 -10z"/>
<path d="M3242 5769 c-18 -6 -50 -27 -72 -49 -80 -80 -78 -204 6 -282 112
-104 307 -36 322 112 7 71 -5 116 -41 157 -56 63 -133 85 -215 62z"/>
<path d="M3124 5427 c-13 -34 2 -57 47 -70 14 -4 17 -98 27 -848 7 -464 15
-920 18 -1014 l6 -170 187 -88 187 -88 112 45 c256 103 408 256 406 408 -1 73
-55 187 -114 241 -22 21 -40 44 -40 52 0 26 -51 74 -105 100 -69 32 -190 50
-244 35 -73 -19 -137 -93 -110 -126 8 -10 8 -14 0 -14 -22 0 -10 -24 32 -64
49 -47 160 -105 215 -112 75 -10 83 -14 97 -46 15 -37 7 -69 -28 -107 -51 -56
-416 -277 -431 -260 -2 2 0 168 5 369 4 201 13 583 18 850 17 774 20 840 42
840 20 0 49 26 49 43 0 7 -4 18 -9 26 -7 11 -14 9 -37 -12 -34 -31 -103 -57
-153 -57 -41 0 -116 32 -148 62 -20 18 -23 19 -29 5z m569 -1464 c10 -9 -13
-33 -32 -33 -24 0 -44 16 -37 29 8 12 58 15 69 4z"/>
<path d="M2850 4029 c-30 -5 -84 -24 -119 -41 -52 -27 -69 -41 -88 -77 -13
-24 -40 -62 -62 -83 -54 -55 -93 -139 -99 -214 -6 -75 22 -142 88 -217 94
-105 197 -161 500 -272 102 -37 230 -86 285 -108 251 -101 361 -226 278 -314
-16 -16 -145 -112 -288 -213 -176 -125 -286 -211 -341 -266 -231 -231 -193
-398 162 -716 200 -179 288 -275 313 -342 11 -31 21 -71 21 -89 0 -49 -40
-123 -122 -227 -91 -116 -127 -169 -161 -236 -59 -117 -74 -268 -36 -368 29
-79 40 -78 17 2 -32 113 -9 225 71 348 20 33 96 120 167 194 134 140 165 187
185 280 13 61 -5 130 -52 205 -17 28 -127 147 -243 265 -239 243 -287 307
-294 386 -11 132 89 223 572 525 154 96 235 173 265 254 42 112 9 206 -104
298 -56 45 -230 136 -603 317 -161 77 -367 212 -399 259 -47 69 -17 125 72
134 64 6 175 62 229 115 30 29 35 39 32 75 -1 23 -8 52 -14 64 -30 54 -126 80
-232 62z m120 -73 c0 -17 -27 -28 -51 -21 -34 11 -22 35 16 35 23 0 35 -5 35
-14z"/>
<path d="M4650 2825 l0 -375 70 0 70 0 0 165 0 165 150 0 150 0 0 -165 0 -165
70 0 70 0 0 375 0 375 -70 0 -70 0 0 -150 0 -150 -150 0 -150 0 0 150 0 150
-70 0 -70 0 0 -375z"/>
<path d="M5380 2825 l0 -375 70 0 70 0 0 375 0 375 -70 0 -70 0 0 -375z"/>
<path d="M5670 2826 l0 -376 70 0 70 0 0 119 0 118 93 6 c143 8 215 47 261
139 30 60 35 156 12 212 -19 47 -72 104 -120 129 -37 20 -59 22 -213 25 l-173
4 0 -376z m308 244 c90 -55 95 -163 12 -234 -28 -23 -40 -26 -106 -26 l-74 0
0 140 0 140 68 0 c49 0 76 -5 100 -20z"/>
<path d="M6441 3158 c-11 -24 -49 -106 -86 -183 -37 -77 -80 -167 -95 -200
-15 -33 -55 -118 -89 -189 -34 -70 -61 -130 -61 -132 0 -2 35 -4 79 -4 l79 0
33 75 34 75 183 0 183 0 34 -75 34 -75 80 0 80 0 -43 93 c-24 50 -103 219
-177 375 l-133 282 -58 0 -59 0 -18 -42z m138 -295 c29 -64 55 -123 58 -130 4
-10 -21 -13 -120 -13 l-126 0 61 130 c34 72 64 130 67 130 3 0 30 -53 60 -117z"/>
<path d="M7290 3180 c-24 -44 -330 -693 -335 -711 -6 -18 -1 -19 69 -19 l76 0
37 75 37 75 182 0 182 0 35 -75 36 -75 76 0 c41 0 75 4 75 8 0 5 -78 173 -173
373 l-173 364 -56 3 c-49 3 -58 0 -68 -18z m134 -335 l55 -120 -121 -3 c-66
-1 -122 -1 -124 1 -2 2 23 61 57 132 33 71 64 124 69 119 4 -5 33 -63 64 -129z"/>
<path d="M2929 3070 c-192 -114 -260 -249 -195 -385 43 -87 101 -140 279 -249
l108 -66 67 47 c37 26 93 66 124 90 l56 43 2 202 c0 110 3 205 6 210 3 4 -14
16 -38 27 -62 26 -325 121 -335 121 -4 -1 -38 -18 -74 -40z m294 -142 c8 -104
9 -418 1 -418 -14 0 -244 173 -268 201 -14 17 -26 40 -26 51 0 37 48 105 101
144 48 35 166 103 180 104 3 0 9 -37 12 -82z"/>
<path d="M3356 2253 l-116 -77 0 -251 0 -250 88 -88 88 -88 63 55 c120 104
220 239 247 334 19 65 13 116 -22 189 -26 53 -127 170 -194 223 l-38 30 -116
-77z m124 -145 c47 -47 90 -127 90 -169 0 -46 -58 -144 -136 -227 -42 -45 -79
-82 -82 -82 -8 0 -5 272 4 458 l6 122 37 -30 c21 -16 57 -48 81 -72z"/>
<path d="M4895 2063 c-117 -42 -191 -107 -243 -213 -24 -49 -27 -66 -27 -155
0 -93 2 -105 32 -166 118 -239 436 -300 633 -121 l45 41 -50 51 -51 51 -43
-40 c-72 -66 -152 -84 -247 -56 -148 44 -219 208 -151 347 76 155 283 190 405
68 l34 -33 51 51 51 51 -40 36 c-21 20 -68 50 -103 68 -55 27 -77 32 -155 34
-68 3 -103 -1 -141 -14z"/>
<path d="M5635 2063 c-117 -42 -191 -106 -243 -213 -24 -49 -27 -66 -27 -155
0 -93 2 -105 32 -166 77 -156 250 -247 420 -220 326 51 452 439 216 662 -78
74 -147 102 -258 106 -68 3 -102 -1 -140 -14z m221 -138 c51 -21 110 -81 134
-137 53 -124 -5 -264 -135 -324 -159 -75 -348 49 -348 227 0 180 183 302 349
234z"/>
<path d="M6270 1695 l0 -375 70 0 70 0 2 248 3 247 109 -192 c59 -106 111
-193 115 -193 3 0 55 83 116 185 60 102 113 185 117 185 5 0 7 -108 6 -240
l-3 -240 73 0 72 0 0 375 0 376 -81 -3 -82 -3 -106 -182 c-58 -100 -110 -178
-114 -174 -5 5 -52 87 -105 182 l-97 174 -82 3 -83 3 0 -376z"/>
<path d="M7168 2064 c-5 -4 -8 -173 -8 -376 l0 -368 75 0 75 0 0 119 0 119 93
4 c104 5 163 26 213 76 88 88 97 234 20 335 -14 19 -50 47 -78 63 -51 28 -58
29 -218 32 -91 2 -168 0 -172 -4z m302 -122 c48 -25 84 -96 74 -147 -8 -45
-47 -93 -91 -111 -18 -8 -57 -14 -88 -14 l-55 0 0 145 0 145 63 0 c41 0 74 -6
97 -18z"/>
<path d="M7780 1695 l0 -375 255 0 255 0 0 70 0 70 -180 0 -180 0 -2 303 -3
302 -72 3 -73 3 0 -376z"/>
<path d="M8380 1695 l0 -375 73 0 72 0 -3 375 -2 375 -70 0 -70 0 0 -375z"/>
<path d="M8931 2028 c-11 -24 -49 -106 -86 -183 -37 -77 -80 -167 -95 -200
-15 -33 -55 -118 -89 -189 -34 -70 -61 -130 -61 -132 0 -2 35 -4 79 -4 l79 0
33 75 34 75 182 0 182 0 35 -75 35 -75 80 0 79 0 -152 323 c-84 177 -165 346
-180 375 l-26 52 -56 0 -55 0 -18 -42z m140 -304 c33 -70 58 -129 56 -131 -3
-2 -58 -2 -124 -1 l-120 3 60 128 c33 70 62 127 64 127 2 0 31 -57 64 -126z"/>
<path d="M9500 1695 l0 -375 70 0 70 0 0 256 c0 140 4 253 8 250 4 -2 80 -117
168 -255 l159 -250 73 -1 72 0 0 375 0 375 -70 0 -70 0 -2 -242 -3 -242 -156
239 -156 240 -81 3 -82 3 0 -376z"/>
<path d="M10220 2005 l0 -65 105 0 105 0 0 -310 0 -310 75 0 75 0 0 310 0 310
100 0 100 0 0 65 0 65 -280 0 -280 0 0 -65z"/>
<path d="M3100 1369 c-124 -140 -152 -231 -110 -354 24 -71 49 -105 159 -217
l84 -88 34 48 c18 26 39 56 47 67 10 15 15 77 19 253 l5 233 -75 67 c-41 37
-78 68 -83 70 -4 2 -40 -34 -80 -79z m154 -296 c4 -145 4 -263 -1 -263 -12 1
-107 128 -130 175 -53 105 -30 190 86 318 18 21 35 36 36 35 2 -2 6 -121 9
-265z"/>
<path d="M3333 627 c-11 -12 -32 -40 -47 -62 l-26 -40 6 -235 c4 -129 10 -246
14 -260 l7 -25 11 25 c5 14 14 149 18 300 l9 275 27 -51 c37 -70 42 -110 24
-179 -8 -33 -13 -61 -11 -64 13 -13 47 98 47 153 0 57 -32 168 -51 181 -5 2
-17 -6 -28 -18z"/>
</g>
</svg>
